<svg width="230" height="205" viewBox="0 0 230 205" fill="none" xmlns="http://www.w3.org/2000/svg">
<g clip-path="url(#clip0_1_2)">
<path d="M115 144.317C175.751 144.317 225 125.513 225 102.317C225 79.1214 175.751 60.3174 115 60.3174C54.2487 60.3174 5 79.1214 5 102.317C5 125.513 54.2487 144.317 115 144.317Z" stroke="#FFF100" stroke-width="10"/>
<path d="M78.6269 123.317C109.003 175.93 149.912 209.178 170 197.58C190.088 185.982 181.749 133.93 151.373 81.3173C120.997 28.7052 80.0883 -4.54343 60 7.05455C39.9117 18.6525 48.2513 70.7052 78.6269 123.317Z" stroke="#FFF100" stroke-width="10"/>
<path d="M78.6269 81.3173C48.2513 133.93 39.9117 185.982 60 197.58C80.0883 209.178 120.997 175.93 151.373 123.317C181.749 70.7051 190.088 18.6525 170 7.05452C149.912 -4.54346 109.003 28.7051 78.6269 81.3173Z" stroke="#FFF100" stroke-width="10"/>
<path d="M104.889 83.0857C94.2357 83.0857 85.5 91.8214 85.5 102.475C85.5 113.235 94.2357 121.864 104.889 121.864C115.543 121.864 124.278 113.128 124.278 102.475C124.278 91.8214 115.543 83.0857 104.889 83.0857Z" fill="#FFF100"/>
<path d="M139.78 95.4968H130.565V109.453H139.78C143.634 109.453 146.758 106.329 146.758 102.475C146.758 98.621 143.634 95.4968 139.78 95.4968Z" fill="#FFF100"/>
</g>
<defs>
<clipPath id="clip0_1_2">
<rect width="230" height="204.635" fill="white"/>
</clipPath>
</defs>
</svg>
